<?xml version="1.0" encoding="utf-8"?>
<!-- Svg Vector Icons : http://www.onlinewebfonts.com/icon -->
<!DOCTYPE svg PUBLIC "-//W3C//DTD SVG 1.1//EN" "http://www.w3.org/Graphics/SVG/1.1/DTD/svg11.dtd">
<svg version="1.1" xmlns="http://www.w3.org/2000/svg" xmlns:xlink="http://www.w3.org/1999/xlink" x="0px" y="0px" viewBox="0 0 1000 1000" enable-background="new 0 0 1000 1000" xml:space="preserve">
<metadata> Svg Vector Icons : http://www.onlinewebfonts.com/icon </metadata>
<g><path d="M729.8,105.2c-127-127-332.6-127-459.6,0c-127,126.9-127,332.7,0,459.6c0,0,229.8,283.8,229.8,425.1c0-141.3,229.8-425.1,229.8-425.1C856.8,438,856.8,232.1,729.8,105.2 M500,465.2c-71.9,0-130-58.1-130-130c0-71.9,58.1-130,130-130c71.9,0,130,58.2,130,130C630,407.1,571.9,465.2,500,465.2L500,465.2z"/></g>
</svg>